<svg xmlns="http://www.w3.org/2000/svg" width="1600" height="1000" viewBox="0 0 1600 1000"><defs>
<linearGradient id="caseGrad" x1="0" x2="1" y1="0" y2="1">
<stop offset="0%" stop-color="#f8fafc" />
<stop offset="100%" stop-color="#cbd5e1" />
</linearGradient>
<linearGradient id="batteryGrad" x1="0" x2="1" y1="0" y2="1">
<stop offset="0%" stop-color="#1f2937" />
<stop offset="100%" stop-color="#030712" />
</linearGradient>
<linearGradient id="boardGrad" x1="0" x2="1" y1="0" y2="1">
<stop offset="0%" stop-color="#bef264" />
<stop offset="100%" stop-color="#4d7c0f" />
</linearGradient>
<linearGradient id="glassGrad" x1="0" x2="1" y1="0" y2="1">
<stop offset="0%" stop-color="#1f2937" />
<stop offset="100%" stop-color="#020617" />
</linearGradient>
</defs>
<rect width="1600" height="1000" fill="#f6f7f9" />
<text x="54" y="66" font-size="28" font-weight="700" fill="#111827" text-anchor="start" font-family="Inter, Helvetica, Arial, sans-serif">SG98 Remote Back-Cover Case Preview</text>
<text x="54" y="96" font-size="14" font-weight="500" fill="#5b6472" text-anchor="start" font-family="Inter, Helvetica, Arial, sans-serif">Narrow lower case sits under the remote, leaving the two control sides exposed.</text>
<text x="54" y="155" font-size="20" font-weight="700" fill="#111827" text-anchor="start" font-family="Inter, Helvetica, Arial, sans-serif">Top Assembly</text>
<path d="M 322.00 182.00 H 519.60 Q 561.60 182.00 561.60 224.00 V 588.00 Q 561.60 630.00 519.60 630.00 H 322.00 Q 280.00 630.00 280.00 588.00 V 224.00 Q 280.00 182.00 322.00 182.00 Z" fill="#000000" opacity="0.08" stroke="#000000" stroke-width="0" stroke-linejoin="round" />
<path d="M 312.00 170.00 H 509.60 Q 551.60 170.00 551.60 212.00 V 576.00 Q 551.60 618.00 509.60 618.00 H 312.00 Q 270.00 618.00 270.00 576.00 V 212.00 Q 270.00 170.00 312.00 170.00 Z" fill="url(#caseGrad)" stroke="#334155" stroke-width="2.2" stroke-linejoin="round" />
<text x="296" y="206" font-size="13" font-weight="700" fill="#475569" text-anchor="start" font-family="Inter, Helvetica, Arial, sans-serif">lower back-cover case</text>
<circle cx="410.8" cy="394.0" r="161.15" fill="#dbe4ee" opacity="0.72" stroke="#64748b" stroke-width="1.5" />
<text x="410.8" y="218.85" font-size="13" font-weight="700" fill="#475569" text-anchor="middle" font-family="Inter, Helvetica, Arial, sans-serif">open-sided round socket</text>
<circle cx="410.8" cy="394.0" r="170.67" fill="#e2e8f0" opacity="0.42" stroke="#94a3b8" stroke-width="1.4" />
<circle cx="410.8" cy="394.0" r="156.67" fill="url(#boardGrad)" stroke="#365314" stroke-width="1.6" />
<circle cx="410.8" cy="394.0" r="141.31" fill="url(#glassGrad)" stroke="#020617" stroke-width="2.2" />
<text x="410.8" y="399.0" font-size="15" font-weight="700" fill="#f8fafc" text-anchor="middle" font-family="Inter, Helvetica, Arial, sans-serif">remote recessed into case</text>
<line x1="392.8" y1="268.85" x2="236" y2="252" stroke="#475569" stroke-width="1.8" stroke-linecap="round" />
<circle cx="392.8" cy="268.85" r="3.2" fill="#475569" stroke="#475569" stroke-width="1" />
<text x="228" y="257" font-size="13" font-weight="700" fill="#475569" text-anchor="end" font-family="Inter, Helvetica, Arial, sans-serif">round socket wall</text>
<line x1="575.47" y1="408.0" x2="659.6" y2="406.0" stroke="#7c3aed" stroke-width="1.8" stroke-linecap="round" />
<circle cx="575.47" cy="408.0" r="3.2" fill="#7c3aed" stroke="#7c3aed" stroke-width="1" />
<text x="667.6" y="411.0" font-size="13" font-weight="700" fill="#7c3aed" text-anchor="start" font-family="Inter, Helvetica, Arial, sans-serif">remote side overhang</text>
<line x1="418.8" y1="568.67" x2="502.8" y2="654.0" stroke="#2563eb" stroke-width="1.8" stroke-linecap="round" />
<circle cx="418.8" cy="568.67" r="3.2" fill="#2563eb" stroke="#2563eb" stroke-width="1" />
<text x="510.8" y="659.0" font-size="13" font-weight="700" fill="#2563eb" text-anchor="start" font-family="Inter, Helvetica, Arial, sans-serif">control side exposed</text>
<rect x="340.8" y="147" width="140" height="34" fill="#fee2e2" opacity="0.78" stroke="#dc2626" stroke-width="2" rx="14" />
<circle cx="410.8" cy="164" r="10" fill="#fff7ed" stroke="#dc2626" stroke-width="2" />
<text x="410.8" y="136" font-size="13" font-weight="700" fill="#dc2626" text-anchor="middle" font-family="Inter, Helvetica, Arial, sans-serif">recessed pressure socket</text>
<rect x="366.8" y="628.0" width="88" height="18" fill="#dbeafe" stroke="#2563eb" stroke-width="2" rx="6" />
<text x="410.8" y="666.0" font-size="13" font-weight="700" fill="#2563eb" text-anchor="middle" font-family="Inter, Helvetica, Arial, sans-serif">USB-C side stays exposed</text>
<circle cx="585.6" cy="342.0" r="7" fill="#7c3aed" stroke="#7c3aed" stroke-width="1" />
<text x="643.6" y="347.0" font-size="13" font-weight="700" fill="#7c3aed" text-anchor="middle" font-family="Inter, Helvetica, Arial, sans-serif">PWR exposed</text>
<circle cx="585.6" cy="446.0" r="7" fill="#7c3aed" stroke="#7c3aed" stroke-width="1" />
<text x="643.6" y="451.0" font-size="13" font-weight="700" fill="#7c3aed" text-anchor="middle" font-family="Inter, Helvetica, Arial, sans-serif">BOOT exposed</text>
<text x="980" y="155" font-size="20" font-weight="700" fill="#111827" text-anchor="start" font-family="Inter, Helvetica, Arial, sans-serif">Inner Bottom Lid</text>
<path d="M 1022.00 172.00 H 1219.60 Q 1261.60 172.00 1261.60 214.00 V 578.00 Q 1261.60 620.00 1219.60 620.00 H 1022.00 Q 980.00 620.00 980.00 578.00 V 214.00 Q 980.00 172.00 1022.00 172.00 Z" fill="#edf2f7" stroke="#334155" stroke-width="2.2" stroke-linejoin="round" />
<path d="M 1032.00 194.00 H 1209.60 Q 1239.60 194.00 1239.60 224.00 V 568.00 Q 1239.60 598.00 1209.60 598.00 H 1032.00 Q 1002.00 598.00 1002.00 568.00 V 224.00 Q 1002.00 194.00 1032.00 194.00 Z" fill="#ffffff" opacity="0.58" stroke="#94a3b8" stroke-width="1.2" stroke-linejoin="round" />
<rect x="1088.8" y="204.0" width="64.0" height="384.0" fill="#c4b5fd" opacity="0.68" stroke="#7c3aed" stroke-width="1.4" rx="6" />
<rect x="1079.8" y="195.0" width="9" height="402.0" fill="#ede9fe" stroke="#7c3aed" stroke-width="1.4" rx="3" />
<rect x="1152.8" y="195.0" width="9" height="402.0" fill="#ede9fe" stroke="#7c3aed" stroke-width="1.4" rx="3" />
<rect x="1079.8" y="195.0" width="82.0" height="9" fill="#ede9fe" stroke="#7c3aed" stroke-width="1.4" rx="3" />
<rect x="1079.8" y="588.0" width="82.0" height="9" fill="#ede9fe" stroke="#7c3aed" stroke-width="1.4" rx="3" />
<text x="1120.8" y="180.0" font-size="13" font-weight="700" fill="#7c3aed" text-anchor="middle" font-family="Inter, Helvetica, Arial, sans-serif">recessed pocket plus retaining rails</text>
<rect x="968" y="257.8" width="18" height="46" fill="#cbd5e1" stroke="#475569" stroke-width="1.5" rx="4" />
<rect x="1255.6" y="257.8" width="18" height="46" fill="#cbd5e1" stroke="#475569" stroke-width="1.5" rx="4" />
<rect x="968" y="488.2" width="18" height="46" fill="#cbd5e1" stroke="#475569" stroke-width="1.5" rx="4" />
<rect x="1255.6" y="488.2" width="18" height="46" fill="#cbd5e1" stroke="#475569" stroke-width="1.5" rx="4" />
<text x="1120.8" y="648.0" font-size="13" font-weight="700" fill="#475569" text-anchor="middle" font-family="Inter, Helvetica, Arial, sans-serif">4 snap tabs click into matching shell slots</text>
<rect x="1024" y="332" width="163.2" height="236.8" fill="url(#batteryGrad)" stroke="#020617" stroke-width="1.4" rx="10" />
<text x="1105.6" y="455.4" font-size="13" font-weight="700" fill="#e5e7eb" text-anchor="middle" font-family="Inter, Helvetica, Arial, sans-serif">battery</text>
<text x="90" y="670" font-size="20" font-weight="700" fill="#111827" text-anchor="start" font-family="Inter, Helvetica, Arial, sans-serif">Section A-A</text>
<text x="90" y="696" font-size="13" font-weight="500" fill="#64748b" text-anchor="start" font-family="Inter, Helvetica, Arial, sans-serif">The remote drops into the open-sided round upper socket; wiring, battery, and magnet are enclosed below it.</text>
<rect x="340" y="710" width="390" height="112" fill="url(#boardGrad)" stroke="#365314" stroke-width="1.5" rx="8" />
<rect x="340" y="694" width="390" height="20" fill="url(#glassGrad)" stroke="#020617" stroke-width="1.4" rx="6" />
<text x="535" y="684" font-size="13" font-weight="700" fill="#111827" text-anchor="middle" font-family="Inter, Helvetica, Arial, sans-serif">remote</text>
<rect x="315" y="756" width="440" height="92" fill="#dbe4ee" stroke="#334155" stroke-width="2" rx="10" />
<rect x="350" y="748" width="370" height="20" fill="#e2e8f0" stroke="#64748b" stroke-width="1.5" rx="7" />
<text x="535" y="806" font-size="13" font-weight="700" fill="#334155" text-anchor="middle" font-family="Inter, Helvetica, Arial, sans-serif">deep upper socket and wiring cavity</text>
<rect x="320" y="800" width="200" height="34" fill="url(#batteryGrad)" stroke="#020617" stroke-width="1.2" rx="7" />
<text x="420" y="822" font-size="12" font-weight="700" fill="#e5e7eb" text-anchor="middle" font-family="Inter, Helvetica, Arial, sans-serif">battery</text>
<rect x="315" y="842" width="440" height="36" fill="#edf2f7" stroke="#334155" stroke-width="1.8" rx="8" />
<rect x="405" y="850" width="280" height="16" fill="#c4b5fd" opacity="0.68" stroke="#7c3aed" stroke-width="1.2" rx="4" />
<rect x="395" y="846" width="10" height="24" fill="#ede9fe" stroke="#7c3aed" stroke-width="1.2" rx="3" />
<rect x="685" y="846" width="10" height="24" fill="#ede9fe" stroke="#7c3aed" stroke-width="1.2" rx="3" />
<text x="545" y="894" font-size="13" font-weight="700" fill="#7c3aed" text-anchor="middle" font-family="Inter, Helvetica, Arial, sans-serif">magnet is recessed into snap-in bottom lid</text>
<rect x="54" y="928" width="1492" height="46" fill="#ffffff" stroke="#d1d5db" stroke-width="1.2" rx="12" />
<text x="78" y="957" font-size="14" font-weight="600" fill="#111827" text-anchor="start" font-family="Inter, Helvetica, Arial, sans-serif">Back-cover print set: 44 mm narrow case, open-sided round remote socket, recessed M5 pressure connector bay, snap-in magnet lid.</text></svg>
